<?xml version="1.0" encoding="utf-8"?>
<!-- Generator: Adobe Illustrator 21.0.0, SVG Export Plug-In . SVG Version: 6.00 Build 0)  -->
<svg version="1.1" id="background" xmlns="http://www.w3.org/2000/svg" xmlns:xlink="http://www.w3.org/1999/xlink" x="0px" y="0px"
	 viewBox="0 0 1920 5400" style="enable-background:new 0 0 1920 5400;" xml:space="preserve">
<style type="text/css">
	.st0{fill:#FFEA00;}
	.st1{opacity:0.5;}
	.st2{fill:#4D4D4D;}
	.st3{fill:#FFE000;}
	.st4{fill:#1A1A1A;}
	.st5{fill:#333333;}
	.st6{fill:#666666;}
</style>
<g>
	<polygon points="1055,5401 0,5401 0,0 1921,0 1266,1450 1235,1934.6 1920,4320 1920,4324 1286,4713 	"/>
	<polyline class="st0" points="1920,791 1920,0 525,0 	"/>
	<polygon class="st0" points="1920,2160 1287.4,1457.1 851,1080 930,1620 1028.3,3235.9 1920,2695.5 	"/>
	<polygon class="st1" points="1920,2160 1287.4,1457.1 851,1080 930,1620 1028.3,3235.9 1920,2695.5 	"/>
	<polygon class="st2" points="173,2160 1184,374 1920,791 1920,1080 	"/>
	<polygon class="st3" points="462,3677 334,4324 1920,3702 1920,3563.4 	"/>
	<polygon class="st4" points="1558,3035 1213,4862 1920,4324 	"/>
	<polygon class="st5" points="995,2703 1920,3240 0,3380 	"/>
	<polygon class="st6" points="334,4324 0,4610.5 1213,4862 	"/>
	<polygon class="st5" points="334,4324 1920,4972 1055,5401 	"/>
</g>
</svg>
