<?xml version="1.0" encoding="utf-8"?>
<!-- Generator: Adobe Illustrator 21.0.0, SVG Export Plug-In . SVG Version: 6.00 Build 0)  -->
<svg version="1.1" id="background" xmlns="http://www.w3.org/2000/svg" xmlns:xlink="http://www.w3.org/1999/xlink" x="0px" y="0px"
	 viewBox="0 0 1920 6480" style="enable-background:new 0 0 1920 6480;" xml:space="preserve">
<style type="text/css">
	.st0{fill:#FFEA00;}
	.st1{opacity:0.5;}
	.st2{fill:#4D4D4D;}
	.st3{fill:#FFE000;}
	.st4{fill:#1A1A1A;}
	.st5{fill:#333333;}
	.st6{fill:#666666;}
</style>
<g>
	<polygon points="1055,6480 1,6480 1,1080 1921,1080 1266,2530 1235,4014.6 1920,4320 1920,5404 1286,5793 	"/>
	<polyline class="st0" points="1920,1871 1920,1080 525,1080 	"/>
	<polygon class="st0" points="1920,3240 1287.4,2537.1 851,2160 930,2700 1028.3,4315.9 1920,3775.5 	"/>
	<polygon class="st1" points="1920,3240 1287.4,2537.1 901,2189 930,2713 1028.3,4315.9 1920,3775.5 	"/>
	<polygon class="st2" points="173,3239 1184,1454 1920,1871 1920,2160 	"/>
	<polygon class="st3" points="462,4757 334,5404 1920,4782 1920,4643.4 	"/>
	<polygon class="st4" points="1558,4115 1213,5942 1920,5404 	"/>
	<polygon class="st5" points="995,3783 1920,4320 0,4461.6 	"/>
	<polygon class="st6" points="334,5404 0,5690.5 1213,5942 	"/>
	<polygon class="st5" points="334,5404 1920,6052 1055,6480 	"/>
</g>
</svg>
